<mxfile host="app.diagrams.net" modified="2022-05-09T13:51:16.181Z" agent="5.0 (Windows NT 10.0; Win64; x64) AppleWebKit/537.36 (KHTML, like Gecko) Chrome/101.0.4951.54 Safari/537.36 Edg/101.0.1210.39" etag="teraFi7cupH3iYMz73Oy" version="18.0.1" type="github">
  <diagram id="9CdTV9ml-djPHhZjXZed" name="Page-1">
    <mxGraphModel dx="1038" dy="579" grid="1" gridSize="10" guides="1" tooltips="1" connect="1" arrows="1" fold="1" page="1" pageScale="1" pageWidth="850" pageHeight="1100" math="0" shadow="0">
      <root>
        <mxCell id="0" />
        <mxCell id="1" parent="0" />
        <mxCell id="Z9fMMzJhMH8_C6XRbWfN-3" value="" style="edgeStyle=orthogonalEdgeStyle;rounded=0;orthogonalLoop=1;jettySize=auto;html=1;" edge="1" parent="1" source="Z9fMMzJhMH8_C6XRbWfN-1" target="Z9fMMzJhMH8_C6XRbWfN-2">
          <mxGeometry relative="1" as="geometry" />
        </mxCell>
        <mxCell id="Z9fMMzJhMH8_C6XRbWfN-1" value="start" style="rounded=1;whiteSpace=wrap;html=1;" vertex="1" parent="1">
          <mxGeometry x="40" y="40" width="90" height="20" as="geometry" />
        </mxCell>
        <mxCell id="Z9fMMzJhMH8_C6XRbWfN-5" value="" style="edgeStyle=orthogonalEdgeStyle;rounded=0;orthogonalLoop=1;jettySize=auto;html=1;" edge="1" parent="1" source="Z9fMMzJhMH8_C6XRbWfN-2" target="Z9fMMzJhMH8_C6XRbWfN-4">
          <mxGeometry relative="1" as="geometry" />
        </mxCell>
        <mxCell id="Z9fMMzJhMH8_C6XRbWfN-2" value="Assign the agent id" style="rounded=0;whiteSpace=wrap;html=1;" vertex="1" parent="1">
          <mxGeometry x="25" y="110" width="120" height="60" as="geometry" />
        </mxCell>
        <mxCell id="Z9fMMzJhMH8_C6XRbWfN-4" value="end" style="ellipse;whiteSpace=wrap;html=1;rounded=0;" vertex="1" parent="1">
          <mxGeometry x="25" y="210" width="120" height="60" as="geometry" />
        </mxCell>
      </root>
    </mxGraphModel>
  </diagram>
</mxfile>
